<?xml version="1.0" encoding="utf-8"?>
<!-- Generator: Adobe Illustrator 12.0.1, SVG Export Plug-In . SVG Version: 6.00 Build 51448)  -->
<!DOCTYPE svg PUBLIC "-//W3C//DTD SVG 1.1//EN" "http://www.w3.org/Graphics/SVG/1.1/DTD/svg11.dtd" [
	<!ENTITY ns_svg "http://www.w3.org/2000/svg">
	<!ENTITY ns_xlink "http://www.w3.org/1999/xlink">
]>
<svg  version="1.1"
	 id="svg2" sodipodi:docname="agical_orginal_improved.svg" inkscape:export-xdpi="303.04001" sodipodi:version="0.32" inkscape:version="0.43" sodipodi:docbase="C:\Documents and Settings\Daniel\My Documents\agical_bilder\logo" inkscape:export-ydpi="303.04001" xmlns:rdf="http://www.w3.org/1999/02/22-rdf-syntax-ns#" xmlns:svg="http://www.w3.org/2000/svg" xmlns:dc="http://purl.org/dc/elements/1.1/" inkscape:export-filename="C:\Documents and Settings\Daniel\Mina dokument\Mina bilder\agical\logo\agical_360x118.png" xmlns:sodipodi="http://inkscape.sourceforge.net/DTD/sodipodi-0.dtd" xmlns:cc="http://web.resource.org/cc/" xmlns:inkscape="http://www.inkscape.org/namespaces/inkscape"
	 xmlns="&ns_svg;" xmlns:xlink="&ns_xlink;" width="612" height="260" viewBox="0 0 612 260"
	 overflow="visible" enable-background="new 0 0 612 260" xml:space="preserve">
<sodipodi:namedview  inkscape:window-height="1018" inkscape:guide-bbox="true" inkscape:document-units="px" showguides="true" showgrid="true" inkscape:guide-points="true" inkscape:pageopacity="0.0" inkscape:grid-points="true" pagecolor="#ffffff" borderopacity="1.0" bordercolor="#666666" gridtolerance="0.010000000px" inkscape:zoom="0.80865696" guidetolerance="0.010000000px" inkscape:cy="526.18109" inkscape:cx="372.04724" inkscape:window-x="-4" inkscape:current-layer="layer1" inkscape:window-width="1443" inkscape:window-y="-4" inkscape:grid-bbox="false" inkscape:pageshadow="2" id="base" gridempspacing="5">
	<sodipodi:guide  orientation="vertical" position="57.351166" id="guide4398"></sodipodi:guide>
</sodipodi:namedview>
<g color="white" fill="white">
	<g id="layer1" inkscape:label="Layer 1" inkscape:groupmode="layer">
		<g id="g1329" transform="matrix(5.09449,0,0,5.09449,-1527.845,-1143.558)">
			<path id="path3798" sodipodi:nodetypes="ccccccccccccccccccccccccccccccccccccc" d="M328.072,241.191l3.5,1.912
				c-1.148,0.817-2.132,1.787-2.844,3.031c-0.879,1.523-1.344,3.168-1.344,4.938c0,1.77,0.437,3.398,1.281,4.875
				c0.844,1.477,2.047,2.652,3.594,3.531c1.547,0.867,3.18,1.313,4.938,1.313c1.5,0,2.914-0.316,4.25-0.937
				c1.336-0.633,2.48-1.547,3.406-2.719v1c0,2.109-0.258,3.645-0.75,4.594c-0.492,0.949-1.309,1.723-2.469,2.344
				c-1.148,0.633-2.574,0.969-4.25,0.969c-1.699,0-3.943-0.002-5.656,0l-4.438,2.25c2.376-0.003,8.578,0,10.219,0
				c2.238,0,4.156-0.488,5.75-1.437c1.594-0.949,2.731-2.305,3.375-4.063c0.469-1.242,0.687-3.191,0.687-5.875v-15.25h-2.469v3.312
				c-1.148-1.359-2.352-2.32-3.594-2.906c-1.201-0.583-2.486-0.86-3.875-0.875L328.072,241.191z M337.322,243.259
				c2.133,0,3.922,0.73,5.375,2.219c1.465,1.488,2.219,3.348,2.219,5.563c0,1.453-0.344,2.746-1,3.906
				c-0.645,1.16-1.574,2.102-2.781,2.781c-1.207,0.68-2.465,1-3.813,1c-1.336,0-2.609-0.32-3.781-1
				c-1.16-0.691-2.09-1.645-2.781-2.875c-0.691-1.23-1.031-2.527-1.031-3.875c0-1.359,0.352-2.656,1.031-3.875
				c0.691-1.219,1.621-2.176,2.781-2.844C334.701,243.579,335.951,243.259,337.322,243.259z"/>
			<path id="path3792" d="M352.271,241.662h2.479v19.125h-2.479V241.662"/>
			<path id="path3790" sodipodi:nodetypes="ccccccccccccccccccccc" d="M360.135,241.165l3.344,1.844
				c-1.282,0.844-2.397,1.875-3.188,3.219c-0.926,1.582-1.375,3.305-1.375,5.156c0,2.754,1.008,5.078,3,7
				c1.992,1.922,4.477,2.906,7.5,2.906c1.969,0,3.746-0.375,5.281-1.125c1.547-0.762,2.774-1.848,3.688-3.219l-1.969-1.281
				c-1.781,2.238-4.062,3.375-6.875,3.375c-1.535,0-2.945-0.352-4.187-1.031c-1.23-0.68-2.191-1.645-2.906-2.875
				c-0.703-1.23-1.063-2.543-1.063-3.938c0-2.145,0.777-3.969,2.313-5.469c1.547-1.5,3.481-2.25,5.812-2.25
				c2.918,0,5.219,1.137,6.906,3.375l1.969-1.219c-0.574-0.961-1.273-1.754-2.094-2.375c-0.82-0.621-1.816-1.113-3-1.5
				c-1.172-0.387-2.391-0.594-3.656-0.594H360.135z"/>
			<path id="path3788" sodipodi:nodetypes="ccsscssccccccsccccccscsscssccc" d="M382.885,241.165l3.451,1.865
				c-0.452,0.331-0.785,0.652-1.201,1.073c-1.934,1.957-2.906,4.309-2.906,7.063c0,2.812,0.965,5.219,2.875,7.188
				c1.922,1.957,4.23,2.937,6.937,2.937c1.524,0,2.91-0.336,4.187-0.969c1.289-0.633,2.469-1.559,3.5-2.813v3.281h2.406v-19.125
				h-2.406v3.5c-0.961-1.336-2.098-2.332-3.375-3c-1.222-0.645-2.588-0.978-4.094-1h-0.031h-0.125H382.885z M392.291,243.54
				c2.133,0,3.922,0.762,5.375,2.25c1.465,1.488,2.219,3.316,2.219,5.531c0,1.453-0.344,2.777-1,3.938
				c-0.645,1.16-1.574,2.07-2.781,2.75c-1.207,0.68-2.465,1.031-3.812,1.031c-1.336,0-2.609-0.352-3.781-1.031
				c-1.16-0.691-2.09-1.645-2.781-2.875c-0.691-1.23-1.031-2.527-1.031-3.875c0-1.359,0.352-2.656,1.031-3.875
				c0.691-1.219,1.621-2.145,2.781-2.812C389.67,243.892,390.92,243.54,392.291,243.54z"/>
			<path id="path8388" sodipodi:nodetypes="ccccc" d="M407.606,237.871l2.2-4.682v27.642h-2.2V237.871"/>
			<path id="path2113" sodipodi:nodetypes="cccc" d="M356.077,239.098l-5.412-3.372l1.618,3.377L356.077,239.098z"/>
			
				<path id="path1389" inkscape:export-xdpi="289.35999" inkscape:export-ydpi="289.35999" inkscape:export-filename="C:\Documents and Settings\Daniel\Mina dokument\Mina bilder\agical\logo\agical_a_64x65.png" sodipodi:nodetypes="ccsscssccccccsccccccscsscssccc" d="
				M303.547,241.152l3.467,1.921c-0.452,0.331-0.801,0.595-1.217,1.017c-1.934,1.957-2.906,4.309-2.906,7.063
				c0,2.812,0.965,5.219,2.875,7.188c1.922,1.957,4.23,2.938,6.938,2.938c1.523,0,2.91-0.336,4.187-0.969
				c1.289-0.633,2.469-1.559,3.5-2.812v3.281h2.406v-19.125h-2.406v3.5c-0.961-1.336-2.098-2.332-3.375-3
				c-1.222-0.645-2.588-0.978-4.094-1h-0.031h-0.125H303.547z M312.953,243.527c2.133,0,3.922,0.762,5.375,2.25
				c1.465,1.488,2.219,3.316,2.219,5.531c0,1.453-0.344,2.777-1,3.938c-0.645,1.16-1.574,2.07-2.781,2.75
				c-1.207,0.68-2.465,1.031-3.813,1.031c-1.336,0-2.609-0.352-3.781-1.031c-1.16-0.691-2.09-1.645-2.781-2.875
				c-0.691-1.23-1.031-2.527-1.031-3.875c0-1.359,0.352-2.656,1.031-3.875c0.691-1.219,1.621-2.144,2.781-2.812
				C310.332,243.879,311.582,243.527,312.953,243.527z"/>
		</g>
	</g>
</g>
</svg>
